#!OML:ASF I:\golf\golf\golf 2\Subject 1\2002-09-07\Subject1.ASF
:FULLY-SPECIFIED
:DEGREES
256
root 1.62023 15.9986 -2.01432 56.6741 12.019 5.32907
lowerback 34.0563 3.65967 2.64281
upperback 22.3559 5.40996 13.9692
thorax 5.94129 1.74933 12.3058
lowerneck -24.0787 -11.5677 -23.9982
upperneck 6.56466 -7.32975 -4.50736
head 6.42284 -4.61066 0.992103
rclavicle -5.88403e-014 -8.50798e-014
rhumerus 70.0132 -9.5926 -49.3778
rradius 26.5246
rwrist -4.24668
rhand -48.3029 28.0146
rfingers 7.12502
rthumb -20.9594 -0.872922
lclavicle -5.88403e-014 -8.50798e-014
lhumerus -8.23249 -38.5412 92.1406
lradius 97.1199
lwrist -13.8692
lhand -44.4187 15.0306
lfingers 7.12502
lthumb -17.2242 44.2872
rfemur -96.4168 -22.7886 33.2442
rtibia 65.0635
rfoot -20.418 -2.58653
rtoes -8.27493
lfemur -96.5567 -3.8044 -30.5624
ltibia 52.3464
lfoot -5.32678 -23.2092
ltoes 11.6574
257
root 1.61995 16.0407 -1.9939 56.1852 11.7287 5.12338
lowerback 34.7635 3.8866 2.3112
upperback 22.4258 5.63449 14.0155
thorax 5.67695 1.8194 12.433
lowerneck -23.9844 -11.5571 -24.0407
upperneck 6.46255 -7.34579 -4.48484
head 6.37673 -4.60773 1.00975
rclavicle 4.77083e-015 -4.69132e-014
rhumerus 70.0562 -9.50452 -49.009
rradius 26.4121
rwrist -4.31447
rhand -48.8195 29.5342
rfingers 7.12502
rthumb -21.4557 0.702366
lclavicle 4.77083e-015 -4.69132e-014
lhumerus -8.21722 -38.5453 92.2092
lradius 96.8572
lwrist -14.796
lhand -44.3517 15.4075
lfingers 7.12502
lthumb -17.1598 44.6698
rfemur -95.5908 -22.6117 32.9321
rtibia 64.8702
rfoot -20.5512 -2.57601
rtoes -8.01898
lfemur -95.9117 -3.36716 -30.7047
ltibia 52.2711
lfoot -5.57551 -23.2018
ltoes 11.4084
258
root 1.62575 16.0525 -1.98216 56.1016 11.6873 5.09095
lowerback 34.9238 3.91965 2.20606
upperback 22.4214 5.663 14.0908
thorax 5.58537 1.81725 12.5565
lowerneck -23.8798 -11.5477 -24.1342
upperneck 6.42495 -7.33425 -4.52236
head 6.3501 -4.60232 1.01533
rclavicle -2.22639e-014 -4.05521e-014
rhumerus 70.1457 -9.40853 -48.8582
rradius 26.3032
rwrist -4.17746
rhand -48.8858 30.1021
rfingers 7.12502
rthumb -21.5194 1.27751
lclavicle -2.22639e-014 -4.05521e-014
lhumerus -8.35304 -38.6084 92.3654
lradius 96.6589
lwrist -15.5589
lhand -44.4495 16.451
lfingers 7.12502
lthumb -17.2539 45.7051
rfemur -95.3684 -22.6064 32.8601
rtibia 64.7496
rfoot -20.5673 -2.58385
rtoes -7.7616
lfemur -95.7306 -3.3107 -30.7172
ltibia 52.2102
lfoot -5.60646 -23.1967
ltoes 11.5725
259
root 1.63678 16.0439 -1.98025 56.3635 11.8628 5.23786
lowerback 34.654 3.80642 2.43958
upperback 22.3864 5.57658 14.1205
thorax 5.68208 1.79701 12.5034
lowerneck -23.9173 -11.5838 -24.0468
upperneck 6.42399 -7.39121 -4.60219
head 6.35376 -4.63518 0.967564
rclavicle -1.90833e-014 -6.67916e-014
rhumerus 70.2257 -9.58036 -48.8459
rradius 26.1905
rwrist -3.96257
rhand -48.5013 29.0025
rfingers 7.12502
rthumb -21.1501 0.136186
lclavicle -1.90833e-014 -6.67916e-014
lhumerus -8.22619 -38.857 92.2694
lradius 96.5925
lwrist -15.294
lhand -44.3078 16.5378
lfingers 7.12502
lthumb -17.1175 45.8037
rfemur -95.6571 -22.7991 33.0076
rtibia 64.6546
rfoot -20.4918 -2.55281
rtoes -7.81986
lfemur -95.9209 -3.59676 -30.6963
ltibia 52.1321
lfoot -5.52596 -23.2032
ltoes 11.4965
260
root 1.64464 16.0443 -1.97667 56.5426 11.9298 5.32399
lowerback 34.538 3.73718 2.52626
upperback 22.3494 5.51367 14.1201
thorax 5.70386 1.7765 12.4789
lowerneck -23.9432 -11.5941 -24.0259
upperneck 6.37516 -7.40734 -4.62384
head 6.33976 -4.64065 0.955656
rclavicle -1.11319e-014 -3.33958e-014
rhumerus 70.3814 -9.6279 -48.99
rradius 26.051
rwrist -3.64146
rhand -47.8886 27.1816
rfingers 7.12502
rthumb -20.5613 -1.74952
lclavicle -1.11319e-014 -3.33958e-014
lhumerus -8.10928 -38.9693 92.1644
lradius 96.4983
lwrist -15.1841
lhand -44.4021 16.5838
lfingers 7.12502
lthumb -17.2082 45.8419
rfemur -95.845 -22.9075 33.1016
rtibia 64.6087
rfoot -20.4804 -2.52085
rtoes -8.08765
lfemur -96.0312 -3.74258 -30.759
ltibia 52.0579
lfoot -5.44829 -23.2318
ltoes 11.5245
261
root 1.64977 16.0474 -1.97066 56.6646 11.9408 5.30564
lowerback 34.473 3.73001 2.55689
upperback 22.3256 5.5092 14.1263
thorax 5.70339 1.77723 12.4717
lowerneck -23.9891 -11.6237 -24.1204
upperneck 6.42934 -7.40893 -4.51891
head 6.37149 -4.6408 0.998496
rclavicle -2.54444e-014 -2.94201e-014
rhumerus 70.479 -9.62792 -48.9563
rradius 25.8732
rwrist -3.42264
rhand -47.6408 26.1993
rfingers 7.12502
rthumb -20.3232 -2.75734
lclavicle -2.54444e-014 -2.94201e-014
lhumerus -8.06811 -39.0705 92.1095
lradius 96.4306
lwrist -15.1308
lhand -44.8069 17.0348
lfingers 7.12502
lthumb -17.5978 46.2584
rfemur -95.9492 -22.888 33.1883
rtibia 64.5905
rfoot -20.4996 -2.53442
rtoes -8.20598
lfemur -96.1088 -3.76585 -30.7511
ltibia 51.9903
lfoot -5.41084 -23.2173
ltoes 11.5558
262
root 1.6562 16.0381 -1.96935 56.9861 12.0454 5.35095
lowerback 34.1238 3.64738 2.73463
upperback 22.2846 5.43265 14.1237
thorax 5.81899 1.75796 12.412
lowerneck -24.0175 -11.67 -24.2029
upperneck 6.42513 -7.44726 -4.42766
head 6.38193 -4.65439 1.03235
rclavicle 5.88403e-014 2.46493e-014
rhumerus 70.6143 -9.69784 -48.7539
rradius 25.5696
rwrist -3.30289
rhand -47.782 25.8064
rfingers 7.12502
rthumb -20.4589 -3.13575
lclavicle 5.88403e-014 2.46493e-014
lhumerus -8.03976 -39.2237 92.0675
lradius 96.2403
lwrist -15.6457
lhand -45.9816 18.3382
lfingers 7.12502
lthumb -18.728 47.4566
rfemur -96.3321 -22.9011 33.37
rtibia 64.6013
rfoot -20.4451 -2.59213
rtoes -8.33789
lfemur -96.3999 -3.93621 -30.6738
ltibia 51.9223
lfoot -5.35149 -23.1918
ltoes 11.3261
263
root 1.66005 16.0301 -1.96836 57.2859 12.0931 5.45613
lowerback 33.8149 3.59783 2.80823
upperback 22.2473 5.37395 14.1136
thorax 5.91032 1.73963 12.3928
lowerneck -23.9863 -11.6876 -24.1222
upperneck 6.27706 -7.51634 -4.49924
head 6.32514 -4.67896 0.994123
rclavicle -3.33958e-014 -3.33958e-014
rhumerus 70.7677 -9.79411 -48.6679
rradius 25.2547
rwrist -3.07622
rhand -47.8906 25.3374
rfingers 7.12502
rthumb -20.5632 -3.59353
lclavicle -3.33958e-014 -3.33958e-014
lhumerus -8.03059 -39.397 91.9836
lradius 95.767
lwrist -17.4634
lhand -48.0491 20.8173
lfingers 7.12502
lthumb -20.7156 49.7317
rfemur -96.6817 -22.9333 33.4464
rtibia 64.6011
rfoot -20.3572 -2.62402
rtoes -8.15473
lfemur -96.6368 -4.11301 -30.6777
ltibia 51.8382
lfoot -5.27746 -23.1926
ltoes 11.1799
264
root 1.65804 16.0376 -1.96199 57.3003 12.0421 5.47052
lowerback 33.8586 3.67897 2.66387
upperback 22.2464 5.44274 14.1503
thorax 5.85694 1.75858 12.4887
lowerneck -23.8967 -11.6736 -23.975
upperneck 6.1103 -7.57997 -4.61837
head 6.24977 -4.70087 0.936202
rclavicle -9.22361e-014 -7.39479e-014
rhumerus 70.9032 -9.8534 -48.8794
rradius 25.0187
rwrist -2.69133
rhand -48.029 25.8302
rfingers 7.12502
rthumb -20.6962 -3.08628
lclavicle -9.22361e-014 -7.39479e-014
lhumerus -7.95277 -39.3946 91.8863
lradius 96.4416
lwrist -15.1363
lhand -45.9137 18.6768
lfingers 7.12502
lthumb -18.6627 47.8016
rfemur -96.6157 -22.8944 33.3765
rtibia 64.5388
rfoot -20.3374 -2.6383
rtoes -7.70511
lfemur -96.5596 -4.08257 -30.7305
ltibia 51.7201
lfoot -5.22425 -23.2199
ltoes 11.019
265
root 1.65527 16.0547 -1.95324 57.1359 11.9365 5.42569
lowerback 34.0978 3.792 2.47338
upperback 22.2856 5.54681 14.2046
thorax 5.76326 1.78602 12.6112
lowerneck -23.8771 -11.6642 -23.9302
upperneck 6.01323 -7.59571 -4.65647
head 6.21113 -4.70232 0.919681
rclavicle -1.43125e-014 -4.37326e-014
rhumerus 71.1303 -9.93493 -49.1909
rradius 24.7594
rwrist -2.4308
rhand -48.1968 27.6399
rfingers 7.12502
rthumb -20.8575 -1.25891
lclavicle -1.43125e-014 -4.37326e-014
lhumerus -7.88447 -39.55 91.8228
lradius 95.5549
lwrist -17.569
lhand -48.2512 21.4921
lfingers 7.12502
lthumb -20.9098 50.3852
rfemur -96.2756 -22.8205 33.1929
rtibia 64.4151
rfoot -20.3514 -2.65878
rtoes -7.52088
lfemur -96.2668 -3.93211 -30.8233
ltibia 51.5589
lfoot -5.15007 -23.2533
ltoes 10.9066
266
root 1.6546 16.075 -1.94437 56.9277 11.8003 5.42052
lowerback 34.3749 3.88547 2.3104
upperback 22.3371 5.63297 14.2338
thorax 5.68097 1.80853 12.6948
lowerneck -23.9543 -11.6559 -23.8762
upperneck 5.97751 -7.58053 -4.68099
head 6.20542 -4.69424 0.904942
rclavicle 6.67916e-014 1.17681e-013
rhumerus 71.4545 -10.061 -49.4413
rradius 24.3333
rwrist -2.2518
rhand -48.2662 29.0783
rfingers 7.12502
rthumb -20.9241 0.186827
lclavicle 6.67916e-014 1.17681e-013
lhumerus -7.67728 -39.6179 91.7217
lradius 95.8271
lwrist -16.0247
lhand -46.7826 20.0053
lfingers 7.12502
lthumb -19.4983 49.0476
rfemur -95.8639 -22.7908 32.9262
rtibia 64.2654
rfoot -20.356 -2.66764
rtoes -7.42047
lfemur -95.8886 -3.79011 -30.9882
ltibia 51.3744
lfoot -5.04558 -23.3112
ltoes 11.1732
267
root 1.65645 16.0899 -1.93762 56.8038 11.7263 5.42587
lowerback 34.5434 3.94118 2.29098
upperback 22.3589 5.70065 14.2352
thorax 5.62927 1.83919 12.6773
lowerneck -24.0147 -11.6884 -23.8098
upperneck 5.96824 -7.63203 -4.6648
head 6.21218 -4.71738 0.892564
rclavicle -9.54166e-015 -5.40694e-014
rhumerus 71.6714 -10.2578 -49.573
rradius 23.9198
rwrist -2.10408
rhand -48.4534 29.4907
rfingers 7.12502
rthumb -21.104 0.619228
lclavicle -9.54166e-015 -5.40694e-014
lhumerus -7.5661 -39.7176 91.5897
lradius 96.073
lwrist -15.2633
lhand -46.1396 19.1645
lfingers 7.12502
lthumb -18.88 48.2682
rfemur -95.5938 -22.7968 32.7741
rtibia 64.1344
rfoot -20.3471 -2.65538
rtoes -7.37925
lfemur -95.6172 -3.72931 -31.0537
ltibia 51.2042
lfoot -4.94795 -23.3262
ltoes 11.3746
268
root 1.66118 16.0902 -1.93618 56.8735 11.7609 5.44008
lowerback 34.4868 3.90255 2.45468
upperback 22.3401 5.68772 14.2086
thorax 5.65445 1.85062 12.5635
lowerneck -24.07 -11.7631 -23.8517
upperneck 5.99436 -7.7158 -4.53166
head 6.24016 -4.7523 0.926853
rclavicle 2.54444e-014 4.77083e-015
rhumerus 71.8782 -10.4576 -49.9888
rradius 23.6083
rwrist -1.72745
rhand -48.4481 28.5734
rfingers 7.12502
rthumb -21.0989 -0.298683
lclavicle 2.54444e-014 4.77083e-015
lhumerus -7.45977 -39.8058 91.4415
lradius 96.2121
lwrist -14.821
lhand -45.7859 18.9167
lfingers 7.12502
lthumb -18.5397 48.0532
rfemur -95.6445 -22.8311 32.8239
rtibia 64.063
rfoot -20.2945 -2.65482
rtoes -7.43645
lfemur -95.6126 -3.80301 -30.9908
ltibia 51.0669
lfoot -4.83096 -23.2727
ltoes 11.2943
269
root 1.66401 16.0858 -1.9367 57.0111 11.8269 5.47505
lowerback 34.3926 3.80702 2.63619
upperback 22.3086 5.61112 14.1593
thorax 5.69686 1.83428 12.4357
lowerneck -24.1148 -11.7797 -23.8779
upperneck 5.84575 -7.73525 -4.50463
head 6.19658 -4.74819 0.939002
rclavicle 3.18055e-015 1.03368e-014
rhumerus 72.1544 -10.5588 -50.5162
rradius 23.3542
rwrist -1.41662
rhand -48.036 26.658
rfingers 7.12502
rthumb -20.703 -2.25772
lclavicle 3.18055e-015 1.03368e-014
lhumerus -7.35339 -39.9567 91.2614
lradius 95.4076
lwrist -17.5449
lhand -48.3033 22.1309
lfingers 7.12502
lthumb -20.9598 51.0185
rfemur -95.7789 -22.8606 32.9078
rtibia 63.9769
rfoot -20.1869 -2.64952
rtoes -7.30083
lfemur -95.7073 -3.91109 -30.9297
ltibia 50.9468
lfoot -4.72866 -23.2204
ltoes 10.9906
270
root 1.66338 16.0864 -1.93531 57.1229 11.8447 5.53055
lowerback 34.3182 3.7628 2.70708
upperback 22.2809 5.57122 14.113
thorax 5.71501 1.82674 12.3589
lowerneck -24.1295 -11.7901 -23.9436
upperneck 5.63887 -7.76512 -4.34752
head 6.1345 -4.73487 1.00182
rclavicle -3.33958e-014 4.69132e-014
rhumerus 72.3205 -10.6098 -50.6886
rradius 23.1418
rwrist -1.38979
rhand -47.7829 25.5766
rfingers 7.12502
rthumb -20.4598 -3.36548
lclavicle -3.33958e-014 4.69132e-014
lhumerus -7.09748 -39.9455 91.0411
lradius 96.0428
lwrist -14.8784
lhand -46.0198 19.347
lfingers 7.12502
lthumb -18.7647 48.4619
rfemur -95.8634 -22.8664 32.899
rtibia 63.9247
rfoot -20.159 -2.60028
rtoes -6.74762
lfemur -95.7543 -3.98474 -30.9289
ltibia 50.844
lfoot -4.70626 -23.2009
ltoes 10.8088
